<svg xmlns="http://www.w3.org/2000/svg" xmlns:xlink="http://www.w3.org/1999/xlink" zoomAndPan="magnify" preserveAspectRatio="xMidYMid meet" version="1.0" viewBox="313.2 152.77 123.6 54.81"><defs><g/></defs><g fill="#000000" fill-opacity="1"><g transform="translate(311.934363, 177.179988)"><g><path d="M 18.296875 -18.421875 C 18.847656 -17.316406 19.125 -16.078125 19.125 -14.703125 C 19.125 -13.335938 18.847656 -12.101562 18.296875 -11 C 17.753906 -9.90625 17.050781 -9.03125 16.1875 -8.375 C 14.445312 -7.03125 12.640625 -6.359375 10.765625 -6.359375 L 6.828125 -6.359375 L 6.828125 -2.796875 C 6.828125 -2.316406 6.8125 -1.957031 6.78125 -1.71875 C 6.75 -1.476562 6.648438 -1.195312 6.484375 -0.875 C 6.191406 -0.3125 5.375 -0.03125 4.03125 -0.03125 C 2.5625 -0.03125 1.703125 -0.421875 1.453125 -1.203125 C 1.328125 -1.554688 1.265625 -2.097656 1.265625 -2.828125 L 1.265625 -20.3125 C 1.265625 -20.800781 1.28125 -21.164062 1.3125 -21.40625 C 1.34375 -21.644531 1.441406 -21.921875 1.609375 -22.234375 C 1.898438 -22.804688 2.71875 -23.09375 4.0625 -23.09375 L 10.796875 -23.09375 C 12.648438 -23.09375 14.445312 -22.421875 16.1875 -21.078125 C 17.050781 -20.421875 17.753906 -19.535156 18.296875 -18.421875 Z M 10.796875 -11.9375 C 11.429688 -11.9375 12.050781 -12.164062 12.65625 -12.625 C 13.269531 -13.09375 13.578125 -13.785156 13.578125 -14.703125 C 13.578125 -15.628906 13.269531 -16.328125 12.65625 -16.796875 C 12.050781 -17.273438 11.421875 -17.515625 10.765625 -17.515625 L 6.828125 -17.515625 L 6.828125 -11.9375 Z M 10.796875 -11.9375 "/></g></g></g><g fill="#000000" fill-opacity="1"><g transform="translate(331.842389, 177.179988)"><g><path d="M 1.265625 -13.828125 C 1.265625 -14.304688 1.28125 -14.664062 1.3125 -14.90625 C 1.34375 -15.15625 1.429688 -15.4375 1.578125 -15.75 C 1.867188 -16.289062 2.6875 -16.5625 4.03125 -16.5625 C 5.039062 -16.5625 5.753906 -16.382812 6.171875 -16.03125 C 6.523438 -15.738281 6.710938 -15.285156 6.734375 -14.671875 C 6.753906 -14.460938 6.765625 -14.160156 6.765625 -13.765625 L 6.765625 -2.734375 C 6.765625 -2.253906 6.75 -1.894531 6.71875 -1.65625 C 6.6875 -1.414062 6.585938 -1.132812 6.421875 -0.8125 C 6.148438 -0.269531 5.34375 0 4 0 C 2.675781 0 1.867188 -0.28125 1.578125 -0.84375 C 1.429688 -1.164062 1.34375 -1.441406 1.3125 -1.671875 C 1.28125 -1.898438 1.265625 -2.265625 1.265625 -2.765625 Z M 6.4375 -19.671875 C 6.28125 -19.367188 6.003906 -19.15625 5.609375 -19.03125 C 5.210938 -18.90625 4.679688 -18.84375 4.015625 -18.84375 C 3.359375 -18.84375 2.828125 -18.90625 2.421875 -19.03125 C 2.023438 -19.15625 1.75 -19.375 1.59375 -19.6875 C 1.4375 -20 1.34375 -20.273438 1.3125 -20.515625 C 1.28125 -20.765625 1.265625 -21.128906 1.265625 -21.609375 C 1.265625 -22.085938 1.28125 -22.445312 1.3125 -22.6875 C 1.34375 -22.9375 1.429688 -23.207031 1.578125 -23.5 C 1.867188 -24.0625 2.6875 -24.34375 4.03125 -24.34375 C 5.351562 -24.34375 6.148438 -24.0625 6.421875 -23.5 C 6.585938 -23.1875 6.6875 -22.90625 6.71875 -22.65625 C 6.75 -22.414062 6.765625 -22.054688 6.765625 -21.578125 C 6.765625 -21.097656 6.75 -20.734375 6.71875 -20.484375 C 6.6875 -20.242188 6.59375 -19.972656 6.4375 -19.671875 Z M 6.4375 -19.671875 "/></g></g></g><g fill="#000000" fill-opacity="1"><g transform="translate(339.874894, 177.179988)"><g><path d="M 1.390625 -1.484375 C 0.984375 -1.734375 0.78125 -2.128906 0.78125 -2.671875 C 0.78125 -3.222656 1.179688 -4.054688 1.984375 -5.171875 C 2.210938 -5.523438 2.582031 -5.703125 3.09375 -5.703125 C 3.613281 -5.703125 4.3125 -5.441406 5.1875 -4.921875 C 6.070312 -4.410156 6.875 -4.15625 7.59375 -4.15625 C 8.875 -4.15625 9.515625 -4.40625 9.515625 -4.90625 C 9.515625 -5.3125 8.8125 -5.609375 7.40625 -5.796875 C 6.082031 -5.984375 4.769531 -6.476562 3.46875 -7.28125 C 2.851562 -7.65625 2.347656 -8.242188 1.953125 -9.046875 C 1.554688 -9.859375 1.359375 -10.820312 1.359375 -11.9375 C 1.359375 -15.257812 3.632812 -16.921875 8.1875 -16.921875 C 9.675781 -16.921875 11.207031 -16.5625 12.78125 -15.84375 C 13.519531 -15.507812 13.890625 -15.085938 13.890625 -14.578125 C 13.890625 -14.078125 13.65625 -13.457031 13.1875 -12.71875 C 12.726562 -11.988281 12.257812 -11.625 11.78125 -11.625 C 11.53125 -11.625 11.0625 -11.78125 10.375 -12.09375 C 9.695312 -12.40625 8.957031 -12.5625 8.15625 -12.5625 C 6.914062 -12.5625 6.296875 -12.332031 6.296875 -11.875 C 6.296875 -11.25 7.007812 -10.835938 8.4375 -10.640625 C 9.820312 -10.492188 11.164062 -10.097656 12.46875 -9.453125 C 13.082031 -9.160156 13.59375 -8.648438 14 -7.921875 C 14.40625 -7.191406 14.609375 -6.28125 14.609375 -5.1875 C 14.609375 -4.101562 14.40625 -3.175781 14 -2.40625 C 13.59375 -1.644531 13.019531 -1.070312 12.28125 -0.6875 C 10.9375 -0.0390625 9.25 0.28125 7.21875 0.28125 C 5.195312 0.28125 3.253906 -0.304688 1.390625 -1.484375 Z M 1.390625 -1.484375 "/></g></g></g><g fill="#000000" fill-opacity="1"><g transform="translate(355.278412, 177.179988)"><g><path d="M 6.453125 -8.296875 C 6.453125 -7.410156 6.742188 -6.71875 7.328125 -6.21875 C 7.921875 -5.726562 8.546875 -5.484375 9.203125 -5.484375 C 9.867188 -5.484375 10.488281 -5.675781 11.0625 -6.0625 C 11.644531 -6.445312 12.113281 -6.640625 12.46875 -6.640625 C 13.101562 -6.640625 13.875 -6.085938 14.78125 -4.984375 C 15.257812 -4.367188 15.5 -3.820312 15.5 -3.34375 C 15.5 -2.539062 14.921875 -1.796875 13.765625 -1.109375 C 12.566406 -0.265625 11.097656 0.15625 9.359375 0.15625 C 7.398438 0.15625 5.519531 -0.546875 3.71875 -1.953125 C 2.851562 -2.628906 2.144531 -3.523438 1.59375 -4.640625 C 1.050781 -5.765625 0.78125 -7.003906 0.78125 -8.359375 C 0.78125 -9.710938 1.050781 -10.941406 1.59375 -12.046875 C 2.144531 -13.148438 2.851562 -14.035156 3.71875 -14.703125 C 5.457031 -16.097656 7.316406 -16.796875 9.296875 -16.796875 C 10.085938 -16.796875 10.859375 -16.679688 11.609375 -16.453125 C 12.367188 -16.234375 12.929688 -16.019531 13.296875 -15.8125 L 13.796875 -15.5 C 14.171875 -15.25 14.460938 -15.050781 14.671875 -14.90625 C 15.222656 -14.476562 15.5 -13.992188 15.5 -13.453125 C 15.5 -12.921875 15.28125 -12.320312 14.84375 -11.65625 C 14.082031 -10.5 13.351562 -9.921875 12.65625 -9.921875 C 12.257812 -9.921875 11.695312 -10.148438 10.96875 -10.609375 C 10.582031 -10.972656 10.035156 -11.15625 9.328125 -11.15625 C 8.628906 -11.15625 7.972656 -10.898438 7.359375 -10.390625 C 6.753906 -9.890625 6.453125 -9.191406 6.453125 -8.296875 Z M 6.453125 -8.296875 "/></g></g></g><g fill="#000000" fill-opacity="1"><g transform="translate(371.563937, 177.179988)"><g><path d="M 8.625 -0.0625 C 6.507812 -0.0625 4.753906 -0.863281 3.359375 -2.46875 C 1.960938 -4.070312 1.265625 -6.03125 1.265625 -8.34375 L 1.265625 -13.859375 C 1.265625 -14.359375 1.28125 -14.722656 1.3125 -14.953125 C 1.34375 -15.191406 1.429688 -15.46875 1.578125 -15.78125 C 1.867188 -16.34375 2.6875 -16.625 4.03125 -16.625 C 5.5 -16.625 6.359375 -16.226562 6.609375 -15.4375 C 6.734375 -15.101562 6.796875 -14.566406 6.796875 -13.828125 L 6.796875 -8.3125 C 6.796875 -7.457031 7.039062 -6.785156 7.53125 -6.296875 C 8.03125 -5.816406 8.691406 -5.578125 9.515625 -5.578125 C 10.347656 -5.578125 11.019531 -5.828125 11.53125 -6.328125 C 12.050781 -6.835938 12.3125 -7.5 12.3125 -8.3125 L 12.3125 -13.890625 C 12.3125 -14.367188 12.328125 -14.726562 12.359375 -14.96875 C 12.390625 -15.21875 12.488281 -15.5 12.65625 -15.8125 C 12.9375 -16.351562 13.75 -16.625 15.09375 -16.625 C 16.414062 -16.625 17.222656 -16.34375 17.515625 -15.78125 C 17.660156 -15.46875 17.75 -15.1875 17.78125 -14.9375 C 17.8125 -14.695312 17.828125 -14.335938 17.828125 -13.859375 L 17.828125 -2.703125 C 17.828125 -2.242188 17.8125 -1.894531 17.78125 -1.65625 C 17.75 -1.414062 17.648438 -1.144531 17.484375 -0.84375 C 17.171875 -0.300781 16.363281 -0.03125 15.0625 -0.03125 C 13.78125 -0.03125 12.988281 -0.28125 12.6875 -0.78125 C 12.476562 -1.144531 12.375 -1.578125 12.375 -2.078125 C 12.289062 -1.929688 12.101562 -1.722656 11.8125 -1.453125 C 11.519531 -1.179688 11.238281 -0.945312 10.96875 -0.75 C 10.25 -0.289062 9.46875 -0.0625 8.625 -0.0625 Z M 8.625 -0.0625 "/></g></g></g><g fill="#000000" fill-opacity="1"><g transform="translate(390.652955, 177.179988)"><g><path d="M 1.265625 -13.828125 C 1.265625 -14.304688 1.28125 -14.664062 1.3125 -14.90625 C 1.34375 -15.15625 1.429688 -15.4375 1.578125 -15.75 C 1.867188 -16.289062 2.6875 -16.5625 4.03125 -16.5625 C 5.039062 -16.5625 5.753906 -16.382812 6.171875 -16.03125 C 6.523438 -15.738281 6.710938 -15.285156 6.734375 -14.671875 C 6.753906 -14.460938 6.765625 -14.160156 6.765625 -13.765625 L 6.765625 -2.734375 C 6.765625 -2.253906 6.75 -1.894531 6.71875 -1.65625 C 6.6875 -1.414062 6.585938 -1.132812 6.421875 -0.8125 C 6.148438 -0.269531 5.34375 0 4 0 C 2.675781 0 1.867188 -0.28125 1.578125 -0.84375 C 1.429688 -1.164062 1.34375 -1.441406 1.3125 -1.671875 C 1.28125 -1.898438 1.265625 -2.265625 1.265625 -2.765625 Z M 6.4375 -19.671875 C 6.28125 -19.367188 6.003906 -19.15625 5.609375 -19.03125 C 5.210938 -18.90625 4.679688 -18.84375 4.015625 -18.84375 C 3.359375 -18.84375 2.828125 -18.90625 2.421875 -19.03125 C 2.023438 -19.15625 1.75 -19.375 1.59375 -19.6875 C 1.4375 -20 1.34375 -20.273438 1.3125 -20.515625 C 1.28125 -20.765625 1.265625 -21.128906 1.265625 -21.609375 C 1.265625 -22.085938 1.28125 -22.445312 1.3125 -22.6875 C 1.34375 -22.9375 1.429688 -23.207031 1.578125 -23.5 C 1.867188 -24.0625 2.6875 -24.34375 4.03125 -24.34375 C 5.351562 -24.34375 6.148438 -24.0625 6.421875 -23.5 C 6.585938 -23.1875 6.6875 -22.90625 6.71875 -22.65625 C 6.75 -22.414062 6.765625 -22.054688 6.765625 -21.578125 C 6.765625 -21.097656 6.75 -20.734375 6.71875 -20.484375 C 6.6875 -20.242188 6.59375 -19.972656 6.4375 -19.671875 Z M 6.4375 -19.671875 "/></g></g></g><g fill="#000000" fill-opacity="1"><g transform="translate(398.68546, 177.179988)"><g><path d="M 1.265625 -21.640625 C 1.265625 -22.117188 1.28125 -22.476562 1.3125 -22.71875 C 1.34375 -22.96875 1.429688 -23.25 1.578125 -23.5625 C 1.867188 -24.125 2.6875 -24.40625 4.03125 -24.40625 C 5.3125 -24.40625 6.109375 -24.125 6.421875 -23.5625 C 6.585938 -23.25 6.6875 -22.960938 6.71875 -22.703125 C 6.75 -22.453125 6.765625 -22.085938 6.765625 -21.609375 L 6.765625 -7.03125 C 6.765625 -6.269531 6.828125 -5.789062 6.953125 -5.59375 C 7.085938 -5.394531 7.367188 -5.296875 7.796875 -5.296875 C 8.222656 -5.296875 8.507812 -5.28125 8.65625 -5.25 C 8.8125 -5.21875 8.992188 -5.128906 9.203125 -4.984375 C 9.617188 -4.703125 9.828125 -3.953125 9.828125 -2.734375 C 9.828125 -1.410156 9.617188 -0.601562 9.203125 -0.3125 C 8.648438 0.0625 7.347656 0.125 5.296875 -0.125 C 3.671875 -0.332031 2.617188 -0.867188 2.140625 -1.734375 C 1.554688 -2.765625 1.265625 -4.398438 1.265625 -6.640625 Z M 1.265625 -21.640625 "/></g></g></g><g fill="#000000" fill-opacity="1"><g transform="translate(408.985977, 177.179988)"><g><path d="M 1.265625 -21.640625 C 1.265625 -22.117188 1.28125 -22.476562 1.3125 -22.71875 C 1.34375 -22.96875 1.429688 -23.25 1.578125 -23.5625 C 1.867188 -24.125 2.6875 -24.40625 4.03125 -24.40625 C 5.3125 -24.40625 6.109375 -24.125 6.421875 -23.5625 C 6.585938 -23.25 6.6875 -22.960938 6.71875 -22.703125 C 6.75 -22.453125 6.765625 -22.085938 6.765625 -21.609375 L 6.765625 -7.03125 C 6.765625 -6.269531 6.828125 -5.789062 6.953125 -5.59375 C 7.085938 -5.394531 7.367188 -5.296875 7.796875 -5.296875 C 8.222656 -5.296875 8.507812 -5.28125 8.65625 -5.25 C 8.8125 -5.21875 8.992188 -5.128906 9.203125 -4.984375 C 9.617188 -4.703125 9.828125 -3.953125 9.828125 -2.734375 C 9.828125 -1.410156 9.617188 -0.601562 9.203125 -0.3125 C 8.648438 0.0625 7.347656 0.125 5.296875 -0.125 C 3.671875 -0.332031 2.617188 -0.867188 2.140625 -1.734375 C 1.554688 -2.765625 1.265625 -4.398438 1.265625 -6.640625 Z M 1.265625 -21.640625 "/></g></g></g><g fill="#000000" fill-opacity="1"><g transform="translate(419.286494, 177.179988)"><g><path d="M 12.03125 -14.84375 C 12.15625 -16.007812 12.984375 -16.59375 14.515625 -16.59375 C 15.335938 -16.59375 15.945312 -16.53125 16.34375 -16.40625 C 16.75 -16.28125 17.03125 -16.0625 17.1875 -15.75 C 17.34375 -15.4375 17.4375 -15.15625 17.46875 -14.90625 C 17.5 -14.664062 17.515625 -14.304688 17.515625 -13.828125 L 17.515625 -2.796875 C 17.515625 -2.316406 17.5 -1.957031 17.46875 -1.71875 C 17.4375 -1.476562 17.347656 -1.195312 17.203125 -0.875 C 16.910156 -0.332031 16.191406 -0.0625 15.046875 -0.0625 C 13.898438 -0.0625 13.128906 -0.203125 12.734375 -0.484375 C 12.347656 -0.765625 12.125 -1.179688 12.0625 -1.734375 C 11.289062 -0.617188 9.992188 -0.0625 8.171875 -0.0625 C 6.359375 -0.0625 4.671875 -0.890625 3.109375 -2.546875 C 1.554688 -4.210938 0.78125 -6.140625 0.78125 -8.328125 C 0.78125 -10.523438 1.5625 -12.445312 3.125 -14.09375 C 4.695312 -15.738281 6.414062 -16.5625 8.28125 -16.5625 C 9 -16.5625 9.648438 -16.4375 10.234375 -16.1875 C 10.828125 -15.9375 11.238281 -15.703125 11.46875 -15.484375 C 11.695312 -15.265625 11.882812 -15.050781 12.03125 -14.84375 Z M 6.296875 -8.28125 C 6.296875 -7.59375 6.566406 -6.96875 7.109375 -6.40625 C 7.660156 -5.851562 8.320312 -5.578125 9.09375 -5.578125 C 9.875 -5.578125 10.519531 -5.859375 11.03125 -6.421875 C 11.550781 -6.992188 11.8125 -7.617188 11.8125 -8.296875 C 11.8125 -8.984375 11.5625 -9.617188 11.0625 -10.203125 C 10.570312 -10.796875 9.910156 -11.09375 9.078125 -11.09375 C 8.253906 -11.09375 7.582031 -10.796875 7.0625 -10.203125 C 6.550781 -9.617188 6.296875 -8.976562 6.296875 -8.28125 Z M 6.296875 -8.28125 "/></g></g></g><g fill="#000000" fill-opacity="1"><g transform="translate(322.621862, 207.179986)"><g><path d="M 15.6875 -6.046875 L 16.25 -6.453125 C 16.96875 -6.878906 17.472656 -7.09375 17.765625 -7.09375 C 18.421875 -7.09375 19.125 -6.503906 19.875 -5.328125 C 20.332031 -4.585938 20.5625 -3.992188 20.5625 -3.546875 C 20.5625 -3.109375 20.421875 -2.742188 20.140625 -2.453125 C 19.859375 -2.160156 19.523438 -1.898438 19.140625 -1.671875 C 18.765625 -1.441406 18.40625 -1.21875 18.0625 -1 C 17.71875 -0.789062 17.007812 -0.519531 15.9375 -0.1875 C 14.863281 0.144531 13.828125 0.3125 12.828125 0.3125 C 11.835938 0.3125 10.832031 0.179688 9.8125 -0.078125 C 8.789062 -0.335938 7.738281 -0.773438 6.65625 -1.390625 C 5.582031 -2.015625 4.613281 -2.773438 3.75 -3.671875 C 2.882812 -4.566406 2.171875 -5.710938 1.609375 -7.109375 C 1.054688 -8.503906 0.78125 -10.019531 0.78125 -11.65625 C 0.78125 -13.289062 1.050781 -14.773438 1.59375 -16.109375 C 2.144531 -17.441406 2.847656 -18.546875 3.703125 -19.421875 C 4.554688 -20.296875 5.523438 -21.023438 6.609375 -21.609375 C 8.671875 -22.742188 10.742188 -23.3125 12.828125 -23.3125 C 13.804688 -23.3125 14.804688 -23.15625 15.828125 -22.84375 C 16.847656 -22.539062 17.617188 -22.234375 18.140625 -21.921875 L 18.90625 -21.484375 C 19.28125 -21.253906 19.570312 -21.066406 19.78125 -20.921875 C 20.320312 -20.472656 20.59375 -19.96875 20.59375 -19.40625 C 20.59375 -18.851562 20.375 -18.273438 19.9375 -17.671875 C 19.125 -16.535156 18.390625 -15.96875 17.734375 -15.96875 C 17.359375 -15.96875 16.820312 -16.195312 16.125 -16.65625 C 15.25 -17.375 14.070312 -17.734375 12.59375 -17.734375 C 11.226562 -17.734375 9.882812 -17.257812 8.5625 -16.3125 C 7.9375 -15.851562 7.410156 -15.203125 6.984375 -14.359375 C 6.566406 -13.523438 6.359375 -12.578125 6.359375 -11.515625 C 6.359375 -10.453125 6.566406 -9.5 6.984375 -8.65625 C 7.410156 -7.820312 7.945312 -7.160156 8.59375 -6.671875 C 9.875 -5.753906 11.207031 -5.296875 12.59375 -5.296875 C 13.25 -5.296875 13.863281 -5.378906 14.4375 -5.546875 C 15.019531 -5.710938 15.4375 -5.878906 15.6875 -6.046875 Z M 15.6875 -6.046875 "/></g></g></g><g fill="#000000" fill-opacity="1"><g transform="translate(344.010388, 207.179986)"><g><path d="M 0.78125 -8.28125 C 0.78125 -10.800781 1.660156 -12.878906 3.421875 -14.515625 C 5.191406 -16.160156 7.210938 -16.984375 9.484375 -16.984375 C 11.753906 -16.984375 13.757812 -16.164062 15.5 -14.53125 C 17.238281 -12.90625 18.109375 -10.832031 18.109375 -8.3125 C 18.109375 -6.570312 17.65625 -5.023438 16.75 -3.671875 C 15.851562 -2.316406 14.757812 -1.316406 13.46875 -0.671875 C 12.175781 -0.0351562 10.835938 0.28125 9.453125 0.28125 C 8.066406 0.28125 6.722656 -0.0546875 5.421875 -0.734375 C 4.117188 -1.421875 3.019531 -2.429688 2.125 -3.765625 C 1.226562 -5.097656 0.78125 -6.601562 0.78125 -8.28125 Z M 7.359375 -6.03125 C 8.035156 -5.519531 8.71875 -5.265625 9.40625 -5.265625 C 10.101562 -5.265625 10.796875 -5.523438 11.484375 -6.046875 C 12.179688 -6.566406 12.53125 -7.34375 12.53125 -8.375 C 12.53125 -9.40625 12.203125 -10.171875 11.546875 -10.671875 C 10.898438 -11.179688 10.195312 -11.4375 9.4375 -11.4375 C 8.6875 -11.4375 7.984375 -11.171875 7.328125 -10.640625 C 6.679688 -10.117188 6.359375 -9.347656 6.359375 -8.328125 C 6.359375 -7.304688 6.691406 -6.539062 7.359375 -6.03125 Z M 7.359375 -6.03125 "/></g></g></g><g fill="#000000" fill-opacity="1"><g transform="translate(362.910407, 207.179986)"><g><path d="M 10.96875 -16.5625 C 12.414062 -16.5625 13.265625 -16.164062 13.515625 -15.375 C 13.640625 -14.976562 13.703125 -14.453125 13.703125 -13.796875 C 13.703125 -13.148438 13.632812 -12.628906 13.5 -12.234375 C 13.363281 -11.847656 13.148438 -11.570312 12.859375 -11.40625 C 12.410156 -11.15625 11.769531 -11.03125 10.9375 -11.03125 L 8.921875 -11.15625 L 8.921875 -2.703125 C 8.921875 -1.910156 8.816406 -1.316406 8.609375 -0.921875 C 8.410156 -0.535156 8.109375 -0.28125 7.703125 -0.15625 C 7.296875 -0.03125 6.765625 0.03125 6.109375 0.03125 C 5.460938 0.03125 4.941406 -0.0351562 4.546875 -0.171875 C 4.160156 -0.304688 3.882812 -0.523438 3.71875 -0.828125 C 3.550781 -1.140625 3.453125 -1.421875 3.421875 -1.671875 C 3.390625 -1.921875 3.375 -2.285156 3.375 -2.765625 L 3.375 -11.125 L 2.234375 -11.125 C 1.691406 -11.164062 1.304688 -11.289062 1.078125 -11.5 C 0.671875 -11.894531 0.46875 -12.660156 0.46875 -13.796875 C 0.46875 -15.515625 1.085938 -16.375 2.328125 -16.375 L 3.375 -16.375 L 3.375 -18.046875 C 3.375 -19.660156 3.945312 -21.125 5.09375 -22.4375 C 6.25 -23.75 7.921875 -24.40625 10.109375 -24.40625 C 10.597656 -24.40625 10.960938 -24.390625 11.203125 -24.359375 C 11.441406 -24.328125 11.71875 -24.226562 12.03125 -24.0625 C 12.601562 -23.789062 12.890625 -22.984375 12.890625 -21.640625 C 12.890625 -20.628906 12.707031 -19.90625 12.34375 -19.46875 C 12.050781 -19.132812 11.59375 -18.945312 10.96875 -18.90625 C 10.769531 -18.90625 10.472656 -18.90625 10.078125 -18.90625 C 9.304688 -18.90625 8.921875 -18.640625 8.921875 -18.109375 L 8.921875 -16.375 Z M 10.96875 -16.5625 "/></g></g></g><g fill="#000000" fill-opacity="1"><g transform="translate(377.085424, 207.179986)"><g><path d="M 10.96875 -16.5625 C 12.414062 -16.5625 13.265625 -16.164062 13.515625 -15.375 C 13.640625 -14.976562 13.703125 -14.453125 13.703125 -13.796875 C 13.703125 -13.148438 13.632812 -12.628906 13.5 -12.234375 C 13.363281 -11.847656 13.148438 -11.570312 12.859375 -11.40625 C 12.410156 -11.15625 11.769531 -11.03125 10.9375 -11.03125 L 8.921875 -11.15625 L 8.921875 -2.703125 C 8.921875 -1.910156 8.816406 -1.316406 8.609375 -0.921875 C 8.410156 -0.535156 8.109375 -0.28125 7.703125 -0.15625 C 7.296875 -0.03125 6.765625 0.03125 6.109375 0.03125 C 5.460938 0.03125 4.941406 -0.0351562 4.546875 -0.171875 C 4.160156 -0.304688 3.882812 -0.523438 3.71875 -0.828125 C 3.550781 -1.140625 3.453125 -1.421875 3.421875 -1.671875 C 3.390625 -1.921875 3.375 -2.285156 3.375 -2.765625 L 3.375 -11.125 L 2.234375 -11.125 C 1.691406 -11.164062 1.304688 -11.289062 1.078125 -11.5 C 0.671875 -11.894531 0.46875 -12.660156 0.46875 -13.796875 C 0.46875 -15.515625 1.085938 -16.375 2.328125 -16.375 L 3.375 -16.375 L 3.375 -18.046875 C 3.375 -19.660156 3.945312 -21.125 5.09375 -22.4375 C 6.25 -23.75 7.921875 -24.40625 10.109375 -24.40625 C 10.597656 -24.40625 10.960938 -24.390625 11.203125 -24.359375 C 11.441406 -24.328125 11.71875 -24.226562 12.03125 -24.0625 C 12.601562 -23.789062 12.890625 -22.984375 12.890625 -21.640625 C 12.890625 -20.628906 12.707031 -19.90625 12.34375 -19.46875 C 12.050781 -19.132812 11.59375 -18.945312 10.96875 -18.90625 C 10.769531 -18.90625 10.472656 -18.90625 10.078125 -18.90625 C 9.304688 -18.90625 8.921875 -18.640625 8.921875 -18.109375 L 8.921875 -16.375 Z M 10.96875 -16.5625 "/></g></g></g><g fill="#000000" fill-opacity="1"><g transform="translate(391.260441, 207.179986)"><g><path d="M 17.265625 -10.28125 C 17.265625 -8.988281 16.941406 -8.03125 16.296875 -7.40625 C 15.660156 -6.789062 14.953125 -6.484375 14.171875 -6.484375 L 6.703125 -6.484375 C 6.703125 -5.898438 7.046875 -5.40625 7.734375 -5 C 8.429688 -4.601562 9.128906 -4.40625 9.828125 -4.40625 C 11.046875 -4.40625 12 -4.53125 12.6875 -4.78125 L 13.046875 -4.90625 C 13.546875 -5.144531 13.960938 -5.265625 14.296875 -5.265625 C 14.972656 -5.265625 15.550781 -4.789062 16.03125 -3.84375 C 16.300781 -3.28125 16.4375 -2.796875 16.4375 -2.390625 C 16.4375 -0.523438 14.203125 0.40625 9.734375 0.40625 C 8.179688 0.40625 6.800781 0.140625 5.59375 -0.390625 C 4.382812 -0.929688 3.441406 -1.640625 2.765625 -2.515625 C 1.441406 -4.222656 0.78125 -6.125 0.78125 -8.21875 C 0.78125 -10.863281 1.632812 -12.976562 3.34375 -14.5625 C 5.0625 -16.15625 7.203125 -16.953125 9.765625 -16.953125 C 12.679688 -16.953125 14.820312 -15.921875 16.1875 -13.859375 C 16.90625 -12.765625 17.265625 -11.570312 17.265625 -10.28125 Z M 10.609375 -9.359375 C 11.410156 -9.359375 11.8125 -9.691406 11.8125 -10.359375 C 11.8125 -10.847656 11.625 -11.238281 11.25 -11.53125 C 10.882812 -11.820312 10.359375 -11.96875 9.671875 -11.96875 C 8.992188 -11.96875 8.316406 -11.6875 7.640625 -11.125 C 6.972656 -10.570312 6.640625 -9.984375 6.640625 -9.359375 Z M 10.609375 -9.359375 "/></g></g></g><g fill="#000000" fill-opacity="1"><g transform="translate(409.309959, 207.179986)"><g><path d="M 17.265625 -10.28125 C 17.265625 -8.988281 16.941406 -8.03125 16.296875 -7.40625 C 15.660156 -6.789062 14.953125 -6.484375 14.171875 -6.484375 L 6.703125 -6.484375 C 6.703125 -5.898438 7.046875 -5.40625 7.734375 -5 C 8.429688 -4.601562 9.128906 -4.40625 9.828125 -4.40625 C 11.046875 -4.40625 12 -4.53125 12.6875 -4.78125 L 13.046875 -4.90625 C 13.546875 -5.144531 13.960938 -5.265625 14.296875 -5.265625 C 14.972656 -5.265625 15.550781 -4.789062 16.03125 -3.84375 C 16.300781 -3.28125 16.4375 -2.796875 16.4375 -2.390625 C 16.4375 -0.523438 14.203125 0.40625 9.734375 0.40625 C 8.179688 0.40625 6.800781 0.140625 5.59375 -0.390625 C 4.382812 -0.929688 3.441406 -1.640625 2.765625 -2.515625 C 1.441406 -4.222656 0.78125 -6.125 0.78125 -8.21875 C 0.78125 -10.863281 1.632812 -12.976562 3.34375 -14.5625 C 5.0625 -16.15625 7.203125 -16.953125 9.765625 -16.953125 C 12.679688 -16.953125 14.820312 -15.921875 16.1875 -13.859375 C 16.90625 -12.765625 17.265625 -11.570312 17.265625 -10.28125 Z M 10.609375 -9.359375 C 11.410156 -9.359375 11.8125 -9.691406 11.8125 -10.359375 C 11.8125 -10.847656 11.625 -11.238281 11.25 -11.53125 C 10.882812 -11.820312 10.359375 -11.96875 9.671875 -11.96875 C 8.992188 -11.96875 8.316406 -11.6875 7.640625 -11.125 C 6.972656 -10.570312 6.640625 -9.984375 6.640625 -9.359375 Z M 10.609375 -9.359375 "/></g></g></g></svg>